<svg width="34" height="34" viewBox="0 0 34 34" fill="none" xmlns="http://www.w3.org/2000/svg">
<rect width="34" height="34" rx="17" fill="white"/>
<rect x="3" y="3.1875" width="28" height="27.625" rx="13.8125" fill="#1D3557"/>
<path d="M7 9.72585C7 9.0478 7.49653 8.5 8.11111 8.5H25.8889C26.5035 8.5 27 9.0478 27 9.72585V11.0896C27 11.691 26.559 12.1775 26.0139 12.1775C24.7188 12.1775 23.6667 13.3344 23.6667 14.7672V19.5518C23.2188 19.5518 22.7708 19.7012 22.3889 20C21.7639 20.475 20.9965 20.7776 20.3333 20.7776V15.8551C20.3333 13.8248 18.8403 12.1775 17 12.1775C15.1597 12.1775 13.6667 13.8248 13.6667 15.8551V20.7776C13.0069 20.7776 12.2361 20.475 11.6146 20C11.2292 19.7012 10.7813 19.5518 10.3333 19.5518V14.7672C10.3333 13.3344 9.28472 12.1775 7.98611 12.1775C7.44097 12.1775 7 11.691 7 11.0896V9.72585ZM17.6424 20.9845C18.4236 21.5783 19.3785 21.9843 20.3333 21.9843C21.2674 21.9843 22.2569 21.5706 23.0208 20.9845C23.434 20.6589 23.9965 20.6857 24.3819 21.0496C24.8819 21.5055 25.5104 21.8541 26.1389 22.015C26.7361 22.1682 27.1076 22.8271 26.9688 23.486C26.8299 24.1449 26.2326 24.5548 25.6354 24.4016C24.7847 24.1832 24.0764 23.7695 23.6146 23.4439C22.6076 24.0415 21.4792 24.436 20.3333 24.436C19.2257 24.436 18.2292 24.0568 17.5417 23.712C17.3403 23.6086 17.1563 23.509 17 23.417C16.8438 23.509 16.6632 23.6124 16.4583 23.712C15.7708 24.0568 14.7743 24.436 13.6667 24.436C12.5208 24.436 11.3924 24.0415 10.3854 23.4477C9.92014 23.7695 9.21528 24.187 8.36458 24.4054C7.76736 24.5586 7.17014 24.1487 7.03125 23.4898C6.89236 22.8309 7.26389 22.172 7.86111 22.0188C8.48958 21.8579 9.11806 21.5093 9.61806 21.0535C10.0035 20.6934 10.566 20.6665 10.9792 20.9883C11.7465 21.5706 12.7326 21.9843 13.6667 21.9843C14.6215 21.9843 15.5764 21.5783 16.3576 20.9845C16.7431 20.6819 17.2569 20.6819 17.6424 20.9845Z" fill="white"/>
</svg>
