<svg width="32" height="33" viewBox="0 0 32 33" fill="none" xmlns="http://www.w3.org/2000/svg">
<rect x="0.5" y="0.5" width="31" height="32" rx="7.5" fill="#FEF2F2" fill-opacity="0.88" stroke="#FEF2F2"/>
<path d="M10.8125 26C10.2969 26 9.85562 25.8043 9.48875 25.413C9.12187 25.0217 8.93812 24.5507 8.9375 24V11H8V9H12.6875V8H18.3125V9H23V11H22.0625V24C22.0625 24.55 21.8791 25.021 21.5122 25.413C21.1453 25.805 20.7038 26.0007 20.1875 26H10.8125ZM20.1875 11H10.8125V24H20.1875V11ZM12.6875 22H14.5625V13H12.6875V22ZM16.4375 22H18.3125V13H16.4375V22Z" fill="#E7000B"/>
</svg>
