<svg width="32" height="33" viewBox="0 0 32 33" fill="none" xmlns="http://www.w3.org/2000/svg">
<rect x="0.5" y="0.5" width="31" height="32" rx="7.5" fill="#DBEAFE" fill-opacity="0.88" stroke="#DBEAFE"/>
<path d="M8.22222 24.7778H9.80555L23.7778 10.7778L22.2222 9.22222L8.22222 23.1944V24.7778ZM6 27V22.2778L20.6667 7.63889C20.8889 7.43519 21.1344 7.27778 21.4033 7.16667C21.6722 7.05556 21.9544 7 22.25 7C22.5455 7 22.8326 7.05556 23.1111 7.16667C23.3896 7.27778 23.6304 7.44444 23.8333 7.66667L25.3611 9.22222C25.5833 9.42593 25.7455 9.66667 25.8478 9.94444C25.95 10.2222 26.0007 10.5 26 10.7778C26 11.0741 25.9493 11.3567 25.8478 11.6256C25.7463 11.8944 25.5841 12.1396 25.3611 12.3611L10.7222 27H6ZM23 10L22.2222 9.22222L23.7778 10.7778L23 10Z" fill="#3647EA"/>
</svg>
