     <svg
                width="32"
                height="33"
                viewBox="0 0 32 33"
                fill="none"
                xmlns="http://www.w3.org/2000/svg"
              >
                <rect
                  x="0.5"
                  y="0.5"
                  width="31"
                  height="32"
                  rx="7.5"
                  fill="#DBEAFE"
                  fill-opacity="0.88"
                  stroke="#DBEAFE"
                />
                <path
                  d="M6 10.1537C6 9.51558 6.49653 9 7.11111 9H24.8889C25.5035 9 26 9.51558 26 10.1537V11.4373C26 12.0033 25.559 12.4612 25.0139 12.4612C23.7188 12.4612 22.6667 13.5501 22.6667 14.8985V19.4017C22.2188 19.4017 21.7708 19.5423 21.3889 19.8235C20.7639 20.2706 19.9965 20.5554 19.3333 20.5554V15.9224C19.3333 14.0116 17.8403 12.4612 16 12.4612C14.1597 12.4612 12.6667 14.0116 12.6667 15.9224V20.5554C12.0069 20.5554 11.2361 20.2706 10.6146 19.8235C10.2292 19.5423 9.78125 19.4017 9.33333 19.4017V14.8985C9.33333 13.5501 8.28472 12.4612 6.98611 12.4612C6.44097 12.4612 6 12.0033 6 11.4373V10.1537ZM16.6424 20.7501C17.4236 21.309 18.3785 21.6911 19.3333 21.6911C20.2674 21.6911 21.2569 21.3018 22.0208 20.7501C22.434 20.4437 22.9965 20.4689 23.3819 20.8114C23.8819 21.2405 24.5104 21.5686 25.1389 21.72C25.7361 21.8642 26.1076 22.4843 25.9688 23.1045C25.8299 23.7246 25.2326 24.1104 24.6354 23.9662C23.7847 23.7607 23.0764 23.3713 22.6146 23.0648C21.6076 23.6273 20.4792 23.9986 19.3333 23.9986C18.2257 23.9986 17.2292 23.6417 16.5417 23.3172C16.3403 23.2198 16.1563 23.1261 16 23.0396C15.8438 23.1261 15.6632 23.2235 15.4583 23.3172C14.7708 23.6417 13.7743 23.9986 12.6667 23.9986C11.5208 23.9986 10.3924 23.6273 9.38542 23.0684C8.92014 23.3713 8.21528 23.7643 7.36458 23.9698C6.76736 24.114 6.17014 23.7282 6.03125 23.1081C5.89236 22.4879 6.26389 21.8678 6.86111 21.7236C7.48958 21.5722 8.11806 21.2441 8.61806 20.815C9.00347 20.4761 9.56597 20.4509 9.97917 20.7537C10.7465 21.3018 11.7326 21.6911 12.6667 21.6911C13.6215 21.6911 14.5764 21.309 15.3576 20.7501C15.7431 20.4653 16.2569 20.4653 16.6424 20.7501Z"
                  fill="#3647EA"
                />
              </svg>