<svg
              width="42"
              height="42"
              viewBox="0 0 42 42"
              fill="none"
              xmlns="http://www.w3.org/2000/svg"
            >
              <g filter="url(#filter0_d_325_434)">
                <path
                  d="M4 4C4 1.79086 5.79086 0 8 0H34C36.2091 0 38 1.79086 38 4V30C38 32.2091 36.2091 34 34 34H8C5.79086 34 4 32.2091 4 30V4Z"
                  fill="white"
                />
                <rect x="7" y="3.1875" width="28" height="27.625" rx="13.8125" fill="#1D3557" />
                <path
                  d="M11 10.7883C11 10.1103 11.4965 9.5625 12.1111 9.5625H29.8889C30.5035 9.5625 31 10.1103 31 10.7883V12.1521C31 12.7535 30.559 13.24 30.0139 13.24C28.7188 13.24 27.6667 14.3969 27.6667 15.8297V20.6143C27.2188 20.6143 26.7708 20.7637 26.3889 21.0625C25.7639 21.5375 24.9965 21.8401 24.3333 21.8401V16.9176C24.3333 14.8873 22.8403 13.24 21 13.24C19.1597 13.24 17.6667 14.8873 17.6667 16.9176V21.8401C17.0069 21.8401 16.2361 21.5375 15.6146 21.0625C15.2292 20.7637 14.7813 20.6143 14.3333 20.6143V15.8297C14.3333 14.3969 13.2847 13.24 11.9861 13.24C11.441 13.24 11 12.7535 11 12.1521V10.7883ZM21.6424 22.047C22.4236 22.6408 23.3785 23.0468 24.3333 23.0468C25.2674 23.0468 26.2569 22.6331 27.0208 22.047C27.434 21.7214 27.9965 21.7482 28.3819 22.1121C28.8819 22.568 29.5104 22.9166 30.1389 23.0775C30.7361 23.2307 31.1076 23.8896 30.9688 24.5485C30.8299 25.2074 30.2326 25.6173 29.6354 25.4641C28.7847 25.2457 28.0764 24.832 27.6146 24.5064C26.6076 25.104 25.4792 25.4985 24.3333 25.4985C23.2257 25.4985 22.2292 25.1193 21.5417 24.7745C21.3403 24.6711 21.1563 24.5715 21 24.4795C20.8438 24.5715 20.6632 24.6749 20.4583 24.7745C19.7708 25.1193 18.7743 25.4985 17.6667 25.4985C16.5208 25.4985 15.3924 25.104 14.3854 24.5102C13.9201 24.832 13.2153 25.2495 12.3646 25.4679C11.7674 25.6211 11.1701 25.2112 11.0312 24.5523C10.8924 23.8934 11.2639 23.2345 11.8611 23.0813C12.4896 22.9204 13.1181 22.5718 13.6181 22.116C14.0035 21.7559 14.566 21.729 14.9792 22.0508C15.7465 22.6331 16.7326 23.0468 17.6667 23.0468C18.6215 23.0468 19.5764 22.6408 20.3576 22.047C20.7431 21.7444 21.2569 21.7444 21.6424 22.047Z"
                  fill="white"
                />
              </g>
              <defs>
                <filter
                  id="filter0_d_325_434"
                  x="0"
                  y="0"
                  width="42"
                  height="42"
                  filterUnits="userSpaceOnUse"
                  color-interpolation-filters="sRGB"
                >
                  <feFlood flood-opacity="0" result="BackgroundImageFix" />
                  <feColorMatrix
                    in="SourceAlpha"
                    type="matrix"
                    values="0 0 0 0 0 0 0 0 0 0 0 0 0 0 0 0 0 0 127 0"
                    result="hardAlpha"
                  />
                  <feOffset dy="4" />
                  <feGaussianBlur stdDeviation="2" />
                  <feComposite in2="hardAlpha" operator="out" />
                  <feColorMatrix
                    type="matrix"
                    values="0 0 0 0 0 0 0 0 0 0 0 0 0 0 0 0 0 0 0.04 0"
                  />
                  <feBlend
                    mode="normal"
                    in2="BackgroundImageFix"
                    result="effect1_dropShadow_325_434"
                  />
                  <feBlend
                    mode="normal"
                    in="SourceGraphic"
                    in2="effect1_dropShadow_325_434"
                    result="shape"
                  />
                </filter>
              </defs>
            </svg>