<svg width="50" height="50" viewBox="0 0 50 50" fill="none" xmlns="http://www.w3.org/2000/svg">
<path d="M37.1237 12.3744C43.9579 19.2086 43.9579 30.289 37.1237 37.1231L26.9992 47.2476C25.7566 48.4902 23.742 48.4902 22.4994 47.2476L12.3749 37.1231C5.54077 30.289 5.54077 19.2086 12.3749 12.3744V12.3744C19.2091 5.54024 30.2895 5.54024 37.1237 12.3744V12.3744Z" fill="white"/>
<rect x="10.9805" y="11.0286" width="28" height="28" rx="14" fill="#1D3557"/>
<path d="M14.9805 18.1823C14.9805 17.5441 15.477 17.0286 16.0916 17.0286H33.8694C34.4839 17.0286 34.9805 17.5441 34.9805 18.1823V19.4658C34.9805 20.0319 34.5395 20.4898 33.9944 20.4898C32.6992 20.4898 31.6471 21.5786 31.6471 22.9271V27.4303C31.1992 27.4303 30.7513 27.5709 30.3694 27.8521C29.7444 28.2992 28.977 28.584 28.3138 28.584V23.951C28.3138 22.0401 26.8207 20.4898 24.9805 20.4898C23.1402 20.4898 21.6471 22.0401 21.6471 23.951V28.584C20.9874 28.584 20.2166 28.2992 19.5951 27.8521C19.2096 27.5709 18.7617 27.4303 18.3138 27.4303V22.9271C18.3138 21.5786 17.2652 20.4898 15.9666 20.4898C15.4214 20.4898 14.9805 20.0319 14.9805 19.4658V18.1823ZM25.6228 28.7787C26.4041 29.3375 27.3589 29.7197 28.3138 29.7197C29.2478 29.7197 30.2374 29.3303 31.0013 28.7787C31.4145 28.4722 31.977 28.4975 32.3624 28.84C32.8624 29.269 33.4909 29.5971 34.1194 29.7485C34.7166 29.8928 35.0881 30.5129 34.9492 31.133C34.8103 31.7532 34.2131 32.139 33.6159 31.9947C32.7652 31.7892 32.0569 31.3998 31.5951 31.0934C30.5881 31.6558 29.4596 32.0272 28.3138 32.0272C27.2062 32.0272 26.2096 31.6702 25.5221 31.3458C25.3207 31.2484 25.1367 31.1547 24.9805 31.0681C24.8242 31.1547 24.6437 31.252 24.4388 31.3458C23.7513 31.6702 22.7548 32.0272 21.6471 32.0272C20.5013 32.0272 19.3728 31.6558 18.3659 31.097C17.9006 31.3998 17.1957 31.7928 16.3451 31.9983C15.7478 32.1426 15.1506 31.7568 15.0117 31.1366C14.8728 30.5165 15.2444 29.8964 15.8416 29.7522C16.4701 29.6007 17.0985 29.2726 17.5985 28.8436C17.9839 28.5047 18.5464 28.4794 18.9596 28.7823C19.727 29.3303 20.7131 29.7197 21.6471 29.7197C22.602 29.7197 23.5569 29.3375 24.3381 28.7787C24.7235 28.4939 25.2374 28.4939 25.6228 28.7787Z" fill="white"/>
</svg>
