<svg width="21" height="18" viewBox="0 0 21 18" fill="none"
    xmlns="http://www.w3.org/2000/svg">
    <path d="M10.3377 5.68421L13.3636 8.67789V8.52632C13.3636 7.77254 13.0619 7.04964 12.5249 6.51664C11.9879 5.98365 11.2595 5.68421 10.5 5.68421H10.3377ZM6.23318 6.44211L7.71273 7.91053C7.665 8.10947 7.63636 8.30842 7.63636 8.52632C7.63636 9.28009 7.93807 10.003 8.4751 10.536C9.01214 11.069 9.74052 11.3684 10.5 11.3684C10.71 11.3684 10.92 11.34 11.1205 11.2926L12.6 12.7611C11.9605 13.0737 11.2541 13.2632 10.5 13.2632C9.23419 13.2632 8.02023 12.7641 7.12517 11.8758C6.23011 10.9874 5.72727 9.7826 5.72727 8.52632C5.72727 7.77789 5.91818 7.07684 6.23318 6.44211ZM0.954545 1.20316L3.13091 3.36316L3.56045 3.78947C1.98545 5.02105 0.744545 6.63158 0 8.52632C1.65136 12.6853 5.72727 15.6316 10.5 15.6316C11.9795 15.6316 13.3923 15.3474 14.6809 14.8358L15.0914 15.2337L17.8786 18L19.0909 16.7968L2.16682 0M10.5 3.78947C11.7658 3.78947 12.9798 4.28853 13.8748 5.17686C14.7699 6.06519 15.2727 7.27003 15.2727 8.52632C15.2727 9.13263 15.1486 9.72 14.9291 10.2505L17.7259 13.0263C19.1577 11.8421 20.3032 10.2884 21 8.52632C19.3486 4.36737 15.2727 1.42105 10.5 1.42105C9.16364 1.42105 7.88455 1.65789 6.68182 2.08421L8.75318 4.12105C9.29727 3.91263 9.87955 3.78947 10.5 3.78947Z" fill="#62748E" />
</svg>