 <svg width="30" height="30" viewBox="0 0 30 30" fill="none" xmlns="http://www.w3.org/2000/svg">
      <rect width="30" height="30" rx="5" fill="#1D3557" />
      <path
        d="M13.8838 17.0707L13.7803 16.9359L8.50098 10.0629C8.33398 9.84343 8.2969 9.52987 8.41406 9.27087L8.41504 9.26697C8.53102 9.00482 8.76371 8.86087 8.99902 8.86072H21.4609C21.6964 8.86072 21.9289 9.00468 22.0449 9.26697C22.1628 9.53345 22.1244 9.84587 21.9551 10.0668L16.6797 16.9359L16.5762 17.0707V21.1478C16.5761 21.3481 16.4705 21.5113 16.332 21.5844C16.193 21.6577 16.0357 21.6434 15.9121 21.5443H15.9111L14.0654 20.0687L13.9902 19.9935C13.925 19.9102 13.8838 19.798 13.8838 19.6722V17.0707Z"
        stroke="#A8DADC"
      />
    </svg>