<svg width="200" height="133" viewBox="0 0 200 133" fill="none" xmlns="http://www.w3.org/2000/svg">
<path d="M74.3381 124.153V34.1327L51.4053 65.538C49.6945 67.6561 47.169 68.9189 44.6029 68.9189H8.51324C3.82892 68.9189 0 65.0899 0 60.4056C0 55.7213 3.82892 51.8924 8.51324 51.8924H40.3666L75.6008 3.46061C77.7189 0.487089 81.5479 -0.775638 84.9287 0.487091C88.3096 1.74982 90.8758 4.72334 90.8758 8.55226V91.7702L117.189 43.7865C121.711 36.9433 128.024 39.5095 130.346 42.0757L146.477 57.7987H191.487C196.171 57.7987 200 61.6276 200 66.3119C200 70.9963 196.171 74.8252 191.487 74.8252H143.136C141.018 74.8252 138.9 73.9698 137.189 72.259L127.006 61.6276L90.4684 128.308C87.6986 133.603 75.3971 136.21 74.3381 124.153Z" fill="#62748E"/>
</svg>
