<svg width="50" height="50" viewBox="0 0 50 50" fill="none" xmlns="http://www.w3.org/2000/svg">
<rect width="50" height="50" rx="7" fill="#339ECE"/>
<path d="M33.2354 19.2959C34.9341 20.9947 36.0909 23.1594 36.5596 25.5156C37.0282 27.8717 36.7884 30.3138 35.8691 32.5332C34.9498 34.7527 33.392 36.6497 31.3945 37.9844C29.3971 39.319 27.0488 40.0322 24.6465 40.0322C22.2442 40.0322 19.8959 39.319 17.8984 37.9844C15.901 36.6497 14.3442 34.7527 13.4248 32.5332C12.5055 30.3138 12.2648 27.8717 12.7334 25.5156C13.2021 23.1594 14.3589 20.9947 16.0576 19.2959L24.6465 10.707L33.2354 19.2959Z" fill="#329CCD" stroke="white"/>
<path d="M18.8359 28.3853C18.9532 29.7491 19.546 31.0348 20.5215 32.0103C21.4969 32.9857 22.7827 33.5775 24.1465 33.6948V35.3657C22.34 35.2451 20.6309 34.4771 19.3428 33.189C18.0546 31.9008 17.2857 30.1917 17.165 28.3853H18.8359Z" fill="white" stroke="white"/>
</svg>
