<svg width="26" height="31" viewBox="0 0 26 31" fill="none" xmlns="http://www.w3.org/2000/svg">
<path d="M21.2354 9.2959C22.9341 10.9947 24.0909 13.1594 24.5596 15.5156C25.0282 17.8717 24.7884 20.3138 23.8691 22.5332C22.9498 24.7527 21.392 26.6497 19.3945 27.9844C17.3971 29.319 15.0488 30.0322 12.6465 30.0322C10.2442 30.0322 7.89589 29.319 5.89844 27.9844C3.90099 26.6497 2.34415 24.7527 1.4248 22.5332C0.505522 20.3138 0.264785 17.8717 0.733398 15.5156C1.20205 13.1594 2.35891 10.9947 4.05762 9.2959L12.6465 0.707031L21.2354 9.2959Z" fill="#329CCD" stroke="white"/>
<path d="M6.83594 18.3853C6.95325 19.7491 7.54602 21.0348 8.52148 22.0103C9.49692 22.9857 10.7827 23.5775 12.1465 23.6948V25.3657C10.34 25.2451 8.63093 24.4771 7.34277 23.189C6.0546 21.9008 5.2857 20.1917 5.16504 18.3853H6.83594Z" fill="white" stroke="white"/>
</svg>
