    <svg
                    width="14"
                    height="27"
                    viewBox="0 0 19 27"
                    fill="none"
                    xmlns="http://www.w3.org/2000/svg"
                  >
                    <path
                      d="M9.33333 12.6667C11.1743 12.6667 12.6667 11.1743 12.6667 9.33333C12.6667 7.49238 11.1743 6 9.33333 6C7.49238 6 6 7.49238 6 9.33333C6 11.1743 7.49238 12.6667 9.33333 12.6667Z"
                      fill="#62748E"
                    />
                    <path
                      d="M9.33333 0C4.17333 0 0 4.17333 0 9.33333C0 16.3333 9.33333 26.6667 9.33333 26.6667C9.33333 26.6667 18.6667 16.3333 18.6667 9.33333C18.6667 4.17333 14.4933 0 9.33333 0ZM2.66667 9.33333C2.66667 5.65333 5.65333 2.66667 9.33333 2.66667C13.0133 2.66667 16 5.65333 16 9.33333C16 13.1733 12.16 18.92 9.33333 22.5067C6.56 18.9467 2.66667 13.1333 2.66667 9.33333Z"
                      fill="#62748E"
                    />
                  </svg>