<svg width="17" height="16" viewBox="0 0 17 16" fill="none" xmlns="http://www.w3.org/2000/svg">
<path opacity="0.3" d="M8.50065 2.66675C6.54565 2.66675 4.95898 4.16008 4.95898 6.00008C4.95898 7.90008 7.02732 10.8067 8.50065 12.5867C9.99523 10.7934 12.0423 7.92008 12.0423 6.00008C12.0423 4.16008 10.4557 2.66675 8.50065 2.66675ZM8.50065 7.66675C8.031 7.66675 7.58058 7.49115 7.24848 7.17859C6.91639 6.86603 6.72982 6.44211 6.72982 6.00008C6.72982 5.55805 6.91639 5.13413 7.24848 4.82157C7.58058 4.50901 8.031 4.33341 8.50065 4.33341C8.97031 4.33341 9.42072 4.50901 9.75282 4.82157C10.0849 5.13413 10.2715 5.55805 10.2715 6.00008C10.2715 6.44211 10.0849 6.86603 9.75282 7.17859C9.42072 7.49115 8.97031 7.66675 8.50065 7.66675Z" fill="white"/>
<path d="M8.49935 1.33325C5.7581 1.33325 3.54102 3.41992 3.54102 5.99992C3.54102 9.49992 8.49935 14.6666 8.49935 14.6666C8.49935 14.6666 13.4577 9.49992 13.4577 5.99992C13.4577 3.41992 11.2406 1.33325 8.49935 1.33325ZM4.95768 5.99992C4.95768 4.15992 6.54435 2.66659 8.49935 2.66659C10.4543 2.66659 12.041 4.15992 12.041 5.99992C12.041 7.91992 10.001 10.7933 8.49935 12.5866C7.02602 10.8066 4.95768 7.89992 4.95768 5.99992Z" fill="white"/>
<path d="M8.49935 7.66658C9.47735 7.66658 10.2702 6.92039 10.2702 5.99992C10.2702 5.07944 9.47735 4.33325 8.49935 4.33325C7.52134 4.33325 6.72852 5.07944 6.72852 5.99992C6.72852 6.92039 7.52134 7.66658 8.49935 7.66658Z" fill="white"/>
</svg>
