<svg width="42" height="42" viewBox="0 0 42 42" fill="none" xmlns="http://www.w3.org/2000/svg">
<g filter="url(#filter0_d_325_445)">
<rect x="4" width="34" height="34" rx="17" fill="white"/>
<rect x="7" y="3.1875" width="28" height="27.625" rx="13.8125" fill="#A8DADC"/>
<path d="M15.1825 17.4545C16.313 17.4545 16.5315 18.3636 18.346 18.3636C20.1985 18.3636 20.3315 17.4545 21.5095 17.4545C22.64 17.4545 22.8585 18.3636 24.673 18.3636C26.5255 18.3636 26.6585 17.4545 27.8365 17.4545C28.967 17.4545 29.1665 18.3455 30.981 18.3636V16.5455C29.8505 16.5455 29.632 15.6364 27.8175 15.6364C25.965 15.6364 25.832 16.5455 24.654 16.5455C23.5235 16.5455 23.305 15.6364 21.4905 15.6364C19.638 15.6364 19.505 16.5455 18.327 16.5455C17.1965 16.5455 16.978 15.6364 15.1635 15.6364C13.311 15.6364 13.178 16.5455 12 16.5455V18.3636C13.805 18.3636 14.0615 17.4545 15.1825 17.4545ZM27.8365 19.2727C25.984 19.2727 25.851 20.1818 24.673 20.1818C23.5425 20.1818 23.324 19.2727 21.5095 19.2727C19.657 19.2727 19.5145 20.1818 18.3365 20.1818C17.1585 20.1818 17.0255 19.2727 15.173 19.2727C13.3205 19.2727 13.178 20.1818 12 20.1818V22C13.8525 22 14.0045 21.0909 15.173 21.0909C16.351 21.0909 16.484 22 18.3365 22C20.189 22 20.3315 21.0909 21.5095 21.0909C22.64 21.0909 22.8585 22 24.673 22C26.516 22 26.6585 21.0909 27.8365 21.0909C28.967 21.0909 29.1855 22 31 22V20.1818C29.822 20.1818 29.689 19.2727 27.8365 19.2727ZM15.1825 13.8182C16.313 13.8182 16.5315 14.7273 18.346 14.7273C20.1985 14.7273 20.3315 13.8182 21.5095 13.8182C22.64 13.8182 22.8585 14.7273 24.673 14.7273C26.5255 14.7273 26.6585 13.8182 27.8365 13.8182C28.967 13.8182 29.1665 14.7091 30.981 14.7273V12.9091C29.8505 12.9091 29.632 12 27.8175 12C25.965 12 25.832 12.9091 24.654 12.9091C23.5235 12.9091 23.305 12 21.4905 12C19.638 12 19.505 12.9091 18.327 12.9091C17.1965 12.9091 16.978 12 15.1635 12C13.311 12 13.178 12.9091 12 12.9091V14.7273C13.805 14.7273 14.0615 13.8182 15.1825 13.8182Z" fill="white"/>
</g>
<defs>
<filter id="filter0_d_325_445" x="0" y="0" width="42" height="42" filterUnits="userSpaceOnUse" color-interpolation-filters="sRGB">
<feFlood flood-opacity="0" result="BackgroundImageFix"/>
<feColorMatrix in="SourceAlpha" type="matrix" values="0 0 0 0 0 0 0 0 0 0 0 0 0 0 0 0 0 0 127 0" result="hardAlpha"/>
<feOffset dy="4"/>
<feGaussianBlur stdDeviation="2"/>
<feComposite in2="hardAlpha" operator="out"/>
<feColorMatrix type="matrix" values="0 0 0 0 0 0 0 0 0 0 0 0 0 0 0 0 0 0 0.04 0"/>
<feBlend mode="normal" in2="BackgroundImageFix" result="effect1_dropShadow_325_445"/>
<feBlend mode="normal" in="SourceGraphic" in2="effect1_dropShadow_325_445" result="shape"/>
</filter>
</defs>
</svg>
