<svg width="50" height="50" viewBox="0 0 50 50" fill="none" xmlns="http://www.w3.org/2000/svg">
<path d="M37.1217 12.3743C43.9559 19.2085 43.9559 30.2889 37.1217 37.123L26.9972 47.2475C25.7547 48.4901 23.74 48.4901 22.4975 47.2475L12.373 37.123C5.53881 30.2889 5.53881 19.2085 12.373 12.3743V12.3743C19.2072 5.54011 30.2876 5.54011 37.1217 12.3743V12.3743Z" fill="white"/>
<rect x="10.998" y="10.9999" width="28" height="28" rx="14" fill="#A8DADC"/>
<path d="M18.1805 25.4544C19.311 25.4544 19.5295 26.3635 21.344 26.3635C23.1965 26.3635 23.3295 25.4544 24.5075 25.4544C25.638 25.4544 25.8565 26.3635 27.671 26.3635C29.5235 26.3635 29.6565 25.4544 30.8345 25.4544C31.965 25.4544 32.1645 26.3453 33.979 26.3635V24.5453C32.8485 24.5453 32.63 23.6362 30.8155 23.6362C28.963 23.6362 28.83 24.5453 27.652 24.5453C26.5215 24.5453 26.303 23.6362 24.4885 23.6362C22.636 23.6362 22.503 24.5453 21.325 24.5453C20.1945 24.5453 19.976 23.6362 18.1615 23.6362C16.309 23.6362 16.176 24.5453 14.998 24.5453V26.3635C16.803 26.3635 17.0595 25.4544 18.1805 25.4544ZM30.8345 27.2726C28.982 27.2726 28.849 28.1817 27.671 28.1817C26.5405 28.1817 26.322 27.2726 24.5075 27.2726C22.655 27.2726 22.5125 28.1817 21.3345 28.1817C20.1565 28.1817 20.0235 27.2726 18.171 27.2726C16.3185 27.2726 16.176 28.1817 14.998 28.1817V29.9999C16.8505 29.9999 17.0025 29.0908 18.171 29.0908C19.349 29.0908 19.482 29.9999 21.3345 29.9999C23.187 29.9999 23.3295 29.0908 24.5075 29.0908C25.638 29.0908 25.8565 29.9999 27.671 29.9999C29.514 29.9999 29.6565 29.0908 30.8345 29.0908C31.965 29.0908 32.1835 29.9999 33.998 29.9999V28.1817C32.82 28.1817 32.687 27.2726 30.8345 27.2726ZM18.1805 21.8181C19.311 21.8181 19.5295 22.7272 21.344 22.7272C23.1965 22.7272 23.3295 21.8181 24.5075 21.8181C25.638 21.8181 25.8565 22.7272 27.671 22.7272C29.5235 22.7272 29.6565 21.8181 30.8345 21.8181C31.965 21.8181 32.1645 22.709 33.979 22.7272V20.909C32.8485 20.909 32.63 19.9999 30.8155 19.9999C28.963 19.9999 28.83 20.909 27.652 20.909C26.5215 20.909 26.303 19.9999 24.4885 19.9999C22.636 19.9999 22.503 20.909 21.325 20.909C20.1945 20.909 19.976 19.9999 18.1615 19.9999C16.309 19.9999 16.176 20.909 14.998 20.909V22.7272C16.803 22.7272 17.0595 21.8181 18.1805 21.8181Z" fill="white"/>
</svg>
