<svg width="50" height="50" viewBox="0 0 50 50" fill="none" xmlns="http://www.w3.org/2000/svg">
<path d="M37.1237 12.3744C43.9579 19.2086 43.9579 30.289 37.1237 37.1231L26.9992 47.2476C25.7566 48.4902 23.742 48.4902 22.4994 47.2476L12.3749 37.1231C5.54077 30.289 5.54077 19.2086 12.3749 12.3744V12.3744C19.2091 5.54024 30.2895 5.54024 37.1237 12.3744V12.3744Z" fill="white"/>
<rect x="11" y="11" width="28" height="28" rx="14" fill="#E63946"/>
<path d="M18.1825 25.4545C19.313 25.4545 19.5315 26.3636 21.346 26.3636C23.1985 26.3636 23.3315 25.4545 24.5095 25.4545C25.64 25.4545 25.8585 26.3636 27.673 26.3636C29.5255 26.3636 29.6585 25.4545 30.8365 25.4545C31.967 25.4545 32.1665 26.3455 33.981 26.3636V24.5455C32.8505 24.5455 32.632 23.6364 30.8175 23.6364C28.965 23.6364 28.832 24.5455 27.654 24.5455C26.5235 24.5455 26.305 23.6364 24.4905 23.6364C22.638 23.6364 22.505 24.5455 21.327 24.5455C20.1965 24.5455 19.978 23.6364 18.1635 23.6364C16.311 23.6364 16.178 24.5455 15 24.5455V26.3636C16.805 26.3636 17.0615 25.4545 18.1825 25.4545ZM30.8365 27.2727C28.984 27.2727 28.851 28.1818 27.673 28.1818C26.5425 28.1818 26.324 27.2727 24.5095 27.2727C22.657 27.2727 22.5145 28.1818 21.3365 28.1818C20.1585 28.1818 20.0255 27.2727 18.173 27.2727C16.3205 27.2727 16.178 28.1818 15 28.1818V30C16.8525 30 17.0045 29.0909 18.173 29.0909C19.351 29.0909 19.484 30 21.3365 30C23.189 30 23.3315 29.0909 24.5095 29.0909C25.64 29.0909 25.8585 30 27.673 30C29.516 30 29.6585 29.0909 30.8365 29.0909C31.967 29.0909 32.1855 30 34 30V28.1818C32.822 28.1818 32.689 27.2727 30.8365 27.2727ZM18.1825 21.8182C19.313 21.8182 19.5315 22.7273 21.346 22.7273C23.1985 22.7273 23.3315 21.8182 24.5095 21.8182C25.64 21.8182 25.8585 22.7273 27.673 22.7273C29.5255 22.7273 29.6585 21.8182 30.8365 21.8182C31.967 21.8182 32.1665 22.7091 33.981 22.7273V20.9091C32.8505 20.9091 32.632 20 30.8175 20C28.965 20 28.832 20.9091 27.654 20.9091C26.5235 20.9091 26.305 20 24.4905 20C22.638 20 22.505 20.9091 21.327 20.9091C20.1965 20.9091 19.978 20 18.1635 20C16.311 20 16.178 20.9091 15 20.9091V22.7273C16.805 22.7273 17.0615 21.8182 18.1825 21.8182Z" fill="white"/>
</svg>
